<svg width="384" height="163" viewBox="0 0 384 163" fill="none" xmlns="http://www.w3.org/2000/svg">
<g clip-path="url(#clip0)">
<path d="M201 16L212.5 7L222 24.5L193 39L201 16Z" fill="white"/>
<path d="M239 39L280.5 34.5L295 132.5L230.5 112L239 39Z" fill="white"/>
<path d="M317 45L378 60L350.5 153L314.5 132.5L317 45Z" fill="white"/>
<ellipse cx="50.5" cy="65" rx="39.5" ry="29" fill="white"/>
<ellipse cx="110.5" cy="101.5" rx="28.5" ry="30.5" fill="white"/>
<ellipse cx="304.729" cy="93.5623" rx="25.6911" ry="29.0846" transform="rotate(1.15176 304.729 93.5623)" fill="white"/>
<ellipse cx="206.103" cy="73.6722" rx="29.524" ry="29.0846" transform="rotate(1.15176 206.103 73.6722)" fill="white"/>
<path d="M159.5 80C159.5 82.7683 202.146 107.889 201.5 110.439C199.335 118.984 205.297 128.683 198 132.5C194.226 134.474 154.984 115 150.5 115C149.658 115 146.824 131.077 146 131C141.441 130.576 135.19 134.949 131.5 132.5C123.397 127.122 122 95.4547 122 84.5C122 76.5492 117.343 49.9291 122 44.5C125.919 39.931 138.624 37.8475 144.5 36.5C146.434 36.0564 147.442 48.5 149.5 48.5C155.213 48.5 159.649 32.7451 160.5 34.5C161.718 37.0098 190.19 47 173.5 62.5C173.311 64.1839 159.5 78.0142 159.5 80Z" fill="white"/>
<path d="M78 106C78 120.336 80.6521 137.705 76.5 146.5C72.9743 153.968 63.0722 154 58 154C46.9543 154 38 132.51 38 106C38 79.4903 46.9543 58 58 58C66.0716 58 83.84 64.9758 87 81.5C88.1643 87.5885 78 98.8623 78 106Z" fill="white"/>
<path d="M0 60.3938L17.0983 93.8669L23.9377 86.2819L5.27198 54.1279L0 60.3938Z" fill="black"/>
<path d="M254.48 34.0111L253.768 38.4632L261.889 35.3302L260.892 29.8888L254.48 34.0111Z" fill="black"/>
<path d="M206.605 3.83587L180.245 38.793L187.939 36.3196L213.017 0.0433502L206.605 3.83587Z" fill="black"/>
<path d="M347.809 51.6545L354.221 47.6971L352.368 66.4948L347.809 51.6545Z" fill="black"/>
<path d="M307.485 63.6917L320 67.5L320.594 61.0534L314.182 58.2502L307.485 63.6917Z" fill="black"/>
<path d="M109.144 43.9046L109.999 65.5055L118.121 61.8779L115.699 39.7823L109.144 43.9046Z" fill="black"/>
<path d="M313.754 37.3089L307.342 41.4312L307.485 63.6917L314.039 59.8991L316.034 49.0163L313.754 37.3089Z" fill="black"/>
<path d="M308.5 117L306 138L316.947 137.282L319 117H308.5Z" fill="black"/>
<path d="M326.721 141.85L327.006 151.744L348.806 159.824L355.361 155.866L333.845 136.574L312.187 134.43L305.775 138.388L326.721 141.85Z" fill="black"/>
<path d="M245.789 124.372L251.061 121.074L254.623 128.329L259.61 125.196L260.607 134.76L292.382 141.356L298.651 137.233L276 128.329L267 112.5L258 107L240 115L223.846 112.5L217.861 119.26L245.789 124.372Z" fill="black"/>
<path d="M235.672 34.3409L229.26 38.4632L223 82.5L230 89.5L221.5 95.5L217.861 119.26L224.273 115.303L231 92.6302L235.245 69.9576L235.672 34.3409Z" fill="black"/>
<path d="M184.947 45.2238L179.817 48.3567L180.245 50.3354L192.356 41.4313L187.084 34.8356L180.245 38.793L184.947 45.2238Z" fill="black"/>
<path d="M198.768 140.696L147.046 111.016L153.458 105.244L205.18 136.574L198.768 140.696Z" fill="black"/>
<path d="M151.89 30.2186L144.053 47.3674L152.318 44.5642L158.302 26.0963L151.89 30.2186Z" fill="black"/>
<path d="M80.6471 101.287L74.0927 106.564C74.0927 106.564 75.5176 115.138 77.3699 121.074C79.2222 127.01 83.4968 131.792 83.4968 131.792C86.3465 134.925 89.6237 137.233 93.4708 138.553C100.738 141.026 109.002 139.377 116.126 134.101C117.978 132.781 120.543 130.638 122.111 128.824C119.17 130.908 110.58 133.642 103.5 128.824C100.156 126.548 93.2307 127.634 90 124.5C87.4895 122.065 88.5847 115.383 86.5 113.5C81.6179 109.09 80.3317 101.515 80.6471 101.287Z" fill="black"/>
<path d="M116.126 63.8566L116.554 76.5L122.823 79.5L131.2 94.5L130 112.5L121 121.5L122.111 140.861L146.903 136.739L153.458 132.781L133.5 129L130 76.5L122.823 59.2396L116.554 61.713L109.999 65.5055L116.126 63.8566Z" fill="black"/>
<path d="M23.5102 90.5691L51.1525 162.957L77.37 153.228L83.7818 148.281L59.5 151.5L41.4629 97L29.3521 82.3245L22.5128 87.1063L17.0983 93.8669L23.5102 90.5691Z" fill="black"/>
<path d="M296.941 124.702L297.368 128.329C299.648 128 301.928 127.67 304.065 126.845C306.487 125.856 311.617 123.218 313.469 121.239C312.614 121.569 300.646 125.196 296.941 124.702Z" fill="black"/>
<path d="M204.182 106.234L205.18 112.005C210.452 111.016 215.011 108.872 219.571 105.739C222.421 103.76 225.413 100.957 226.41 100.133C225.698 100.627 204.182 106.234 204.182 106.234Z" fill="black"/>
<path d="M217.148 77.5426L216.864 77.8724C217.006 77.8724 217.148 77.7075 217.148 77.5426Z" fill="black"/>
<path d="M225.698 68.6384L230.543 62.5374L228.833 64.5161V64.3512L227.408 66.165L222.563 72.1012L227.123 76.883L227.978 70.9469L230.258 73.2554L225.698 68.6384Z" fill="black"/>
<path d="M225.698 68.6384L230.258 73.2554L231.967 60.7236L230.542 62.5374L225.698 68.6384Z" fill="black"/>
<path d="M191.929 83.6436C192.356 84.1383 191.929 83.8085 192.356 84.1383L195.348 81.6649C194.921 81.3351 194.493 80.8404 194.066 80.5106C189.791 75.8937 190.931 65.6704 193.639 60.064C186.229 66.9895 186.657 77.5426 191.929 83.6436Z" fill="#B9B9B9"/>
<path d="M227.978 89.4148C222.991 94.1967 217.434 97.1647 210.025 99.3083C208.457 99.803 206.747 100.133 205.323 100.133C193.496 101.452 183.665 95.186 179.96 85.1276C179.532 83.9734 179.105 82.6542 178.82 81.3351C177.11 72.7607 178.535 65.1757 182.24 59.0747C182.667 58.4151 182.952 57.9204 183.38 57.4258C183.237 57.5907 182.952 57.7555 182.81 57.9204C181.385 59.4045 180.102 60.8885 179.105 62.7023C175.4 68.6384 173.976 76.3883 175.685 84.9627C175.97 86.2819 176.255 87.601 176.825 88.7552C180.53 98.9785 190.504 105.244 202.188 103.925C203.755 103.76 205.322 103.431 207.032 102.936C214.442 100.792 220.141 97.8243 224.986 93.0424C226.125 91.8882 227.408 90.569 228.548 89.2499L228.405 89.085C228.12 89.2499 227.978 89.2499 227.978 89.4148Z" fill="black"/>
<path d="M144.908 63.5268L158.017 42.0908L157.447 41.5962L144.766 62.2077L144.908 63.5268Z" fill="black"/>
<path d="M231.967 60.7236L230.257 73.2554L227.978 70.9469L227.123 76.883L222.563 72.1011L227.408 66.165L228.832 64.3512V64.5161L230.542 62.5374L231.967 60.7236Z" fill="black"/>
<path d="M215.724 25.4367L220.284 23.1282L211.877 10.5965L209.17 15.2134L215.724 25.4367Z" fill="#B9B9B9"/>
<path d="M88.0564 56.4364C66.6835 26.4261 28.3547 42.5855 14.6761 56.6013L15.246 57.7556C18.3807 55.612 21.8004 53.7982 25.22 51.9843C38.8987 45.2238 52.0074 43.2451 62.4089 45.3887C66.1135 45.8833 69.9606 47.2025 73.3803 49.8408C78.0824 52.9737 81.6445 57.2609 83.7818 62.8672C87.4864 72.7607 84.2093 85.9521 75.5176 96.835C86.489 85.1276 94.0408 73.915 88.0564 56.4364Z" fill="#B9B9B9"/>
<path d="M131.515 91.3935C131.372 90.8989 131.372 90.2393 131.23 89.7446C130.09 84.7978 127.525 80.8404 124.105 78.2022C118.691 73.915 110.997 73.0905 103.445 76.7181C99.4553 78.6968 96.0356 81.8298 93.1859 85.4574C95.3232 83.3138 97.7454 81.6649 100.31 80.3458C107.862 76.5532 115.556 77.5426 120.971 81.8298C124.39 84.4681 126.955 88.4255 128.095 93.3722C128.237 93.8669 128.38 94.5265 128.38 95.0211C128.665 96.9998 128.807 98.8137 128.807 100.792C128.665 106.564 126.813 112.335 123.82 117.282C123.393 118.106 122.823 118.766 122.253 119.59C123.963 117.776 125.53 115.962 126.813 113.819C129.947 108.872 131.657 103.101 131.942 97.3296C131.942 95.3509 131.8 93.3722 131.515 91.3935Z" fill="#B9B9B9"/>
<path d="M110.569 84.1383C110.569 84.1383 113.704 80.5106 113.561 80.5106C109.714 80.3458 108.004 84.6329 107.862 84.9627C108.717 84.468 109.572 84.3032 110.569 84.1383Z" fill="#B9B9B9"/>
<path d="M117.836 89.2499C117.978 89.9095 118.121 90.4042 118.121 91.0637C118.121 92.0531 117.978 92.8775 117.551 93.702C118.121 93.3722 122.681 90.7339 120.971 85.4574C121.113 85.7872 117.694 89.2499 117.836 89.2499Z" fill="black"/>
<path d="M100.168 92.3829C100.168 90.2393 103.445 84.7978 104.442 82.984C99.3128 86.7765 97.033 91.8882 97.033 95.8456C97.033 102.771 102.305 108.377 108.574 108.377C111.567 108.377 116.981 106.564 120.543 99.9679C118.691 101.452 113.989 104.75 111.424 104.75C105.155 104.75 100.168 99.3083 100.168 92.3829Z" fill="#B9B9B9"/>
<path d="M144.196 98.6488L144.338 126.516L148.186 126.845L147.331 95.0211L144.196 98.6488Z" fill="#B9B9B9"/>
<path d="M122.253 45.3887V47.862L140.491 41.5961L141.774 68.4735L144.908 63.5268L144.196 36.6494L122.253 45.3887Z" fill="#B9B9B9"/>
<path d="M177.11 54.9524L160.154 36.8143L158.017 42.0908L173.121 58.4151L177.11 54.9524Z" fill="#B9B9B9"/>
<path d="M174.545 88.7552L154.455 81.0053L151.605 84.6329L171.553 93.8669C173.833 98.8136 177.253 103.101 181.527 106.069C185.659 109.037 190.504 110.851 195.491 111.345V122.723L198.626 124.537L199.623 107.388L174.545 88.7552Z" fill="#B9B9B9"/>
<path d="M206.747 85.6223C211.734 84.3032 214.442 81.3351 217.007 78.0373C215.154 79.8511 206.035 82.1596 204.468 82.6542L201.475 86.4467C202.758 86.4467 205.038 86.117 206.747 85.6223Z" fill="#B9B9B9"/>
<path d="M197.771 46.0482C188.652 47.3674 183.95 56.2715 183.237 57.2609C186.657 53.963 190.789 51.4897 195.491 50.3354C206.747 47.2025 216.579 51.1599 222.706 59.8992L226.553 56.2715C220.426 47.6972 209.027 42.9153 197.771 46.0482Z" fill="#B9B9B9"/>
<path d="M228.263 89.085C229.403 88.0957 231.255 86.9414 232.395 85.6223L220.283 73.0905C219.286 74.4096 218.573 76.5532 217.434 77.5426L228.263 89.085Z" fill="#B9B9B9"/>
<path d="M290.529 122.723C277.848 110.521 278.56 84.6329 284.83 76.3883L279.273 35.66L267.019 37.4738L266.449 41.1015H275.711L280.698 78.0373C274.428 86.2819 271.436 97.3296 273.431 107.553C274.998 115.468 279.273 121.734 285.257 125.361C285.827 125.691 286.54 126.021 287.11 126.351L287.252 126.845L290.957 127.505C290.814 127.67 291.242 123.053 290.529 122.723Z" fill="#B9B9B9"/>
<path d="M241.656 41.5962L241.086 45.2238H255.05L259.182 71.4416L262.317 67.814L259.04 40.1121L241.656 41.5962Z" fill="#B9B9B9"/>
<path d="M265.594 92.3829L261.034 105.904L262.174 109.532L268.586 88.9201L265.594 92.3829Z" fill="#B9B9B9"/>
<path d="M252.2 83.9734L249.066 87.601L245.646 112.005L248.923 113.324L252.2 83.9734Z" fill="#B9B9B9"/>
<path d="M315.037 76.0586C316.889 77.5426 318.456 79.5213 319.596 81.8298C320.594 83.6436 321.164 85.4574 321.734 87.7659C323.301 95.186 321.449 103.101 317.459 109.367C317.031 110.026 316.604 110.686 316.177 111.181C317.744 109.532 337.692 92.5478 318.314 70.2873C296.941 62.2076 288.819 78.2022 288.107 79.3564C290.387 77.2128 292.951 75.2341 295.801 74.0799C302.925 70.782 310.05 71.9363 315.037 76.0586Z" fill="#B9B9B9"/>
<path d="M304.35 77.7075C304.35 77.8724 307.485 74.0799 307.485 74.0799C303.638 74.2448 301.785 76.3883 302.07 77.3777C301.785 77.7075 301.643 78.2022 301.5 78.5319C302.213 78.0373 303.78 77.7075 304.35 77.7075Z" fill="#B9B9B9"/>
<path d="M311.475 83.3138C311.617 83.9734 311.617 84.4681 311.617 85.1276C311.617 85.9521 311.332 86.7766 311.047 87.4361C311.617 87.1063 316.176 85.4574 314.467 79.5213C314.609 79.8511 311.332 83.3138 311.475 83.3138Z" fill="black"/>
<path d="M301.358 101.947C305.633 102.111 310.477 99.1434 313.897 93.702C305.205 95.8456 295.944 78.8617 296.798 77.2128C293.521 80.016 290.529 85.2925 290.387 89.085C290.102 96.0105 295.089 101.617 301.358 101.947Z" fill="#B9B9B9"/>
<path d="M349.376 145.973L351.371 147.457L376.448 60.3938L357.64 55.4471L357.498 60.5587L372.601 64.3512L349.376 145.973Z" fill="#B9B9B9"/>
<path d="M319.596 46.0482L319.739 50.995L339.687 55.612L347.381 97.8243L350.516 94.1967L343.107 51.4897L319.596 46.0482Z" fill="#B9B9B9"/>
<path d="M334.985 94.1967L329.428 130.143L332.562 131.297L338.119 90.5691L334.985 94.1967Z" fill="#B9B9B9"/>
<path d="M76.0876 143.334L66.826 104.09L63.4064 106.893L72.098 144.324L76.0876 143.334Z" fill="#B9B9B9"/>
<path d="M73.6653 84.4681C71.5281 87.1063 66.6835 92.218 63.9763 94.1967L62.2664 88.0957L58.7043 74.5745L56.4245 65.5055L54.1447 68.8033L56.4245 77.8724L59.9867 91.2286L61.6965 97.3296C65.5436 94.8563 70.9581 89.5797 73.6653 84.4681Z" fill="#B9B9B9"/>
<path d="M205.892 61.2183C202.9 59.8992 198.768 60.2289 196.488 63.197C195.918 63.8566 194.921 65.5055 194.636 66.3299C196.773 64.3512 200.763 63.8566 203.185 65.0108L205.892 61.2183Z" fill="#B9B9B9"/>
<path d="M71.1006 73.4203C70.8156 71.4416 69.1058 69.7927 68.2508 69.298C66.826 68.4735 64.1187 68.3086 62.2664 68.8033C62.5514 70.1225 62.9788 71.7714 63.1213 72.4309C63.8338 72.5958 65.1161 72.7607 65.8286 73.0905C66.6835 73.5852 68.1083 74.5745 68.3933 76.7181C68.8208 79.3564 68.6783 81.9947 67.6809 83.9734C70.3881 81.0053 71.6705 77.7075 71.1006 73.4203Z" fill="#B9B9B9"/>
<path d="M75.7299 73.2785C74.4476 65.3637 65.4709 60.9116 56.4943 66.5179L58.7741 75.587L62.3362 89.1081L64.0461 95.2091C70.7429 90.4273 77.4398 84.3263 75.7299 73.2785ZM66.8958 85.6454C65.8984 82.0178 63.7611 74.103 63.7611 74.103C63.7611 74.103 63.3336 72.454 62.7637 70.4753C64.616 70.1456 66.4683 70.3104 67.8932 71.1349C68.7481 71.6296 70.173 72.6189 70.458 74.7625C71.3129 79.0497 70.0305 82.3476 66.8958 85.6454Z" fill="black"/>
<path d="M210.522 60.7467C205.535 55.4702 197.84 55.7999 193.281 61.5712C188.721 67.3424 189.006 76.2465 193.993 81.5231C194.421 82.0178 194.848 82.3475 195.276 82.6773L211.377 61.5712C211.092 61.4063 210.807 61.0765 210.522 60.7467ZM195.418 75.587C193.851 72.2891 194.136 68.0019 196.558 65.0339C198.838 62.2307 202.258 61.4063 205.25 62.7254L195.418 75.587Z" fill="black"/>
<path d="M231.967 58.4151L223.133 68.3086L231.54 77.0479L231.967 58.4151Z" fill="black"/>
<path d="M314.467 79.6862C314.609 80.3458 314.609 81.0053 314.609 81.6649C314.467 85.6223 311.332 88.5904 307.485 88.4255C303.638 88.2606 300.646 84.9627 300.788 81.0053C300.931 77.3777 303.78 74.4096 307.2 74.2447C306.487 74.0799 305.775 73.915 305.063 73.915C298.651 73.5852 293.521 78.8617 293.236 85.2925C292.951 92.218 297.796 97.9892 304.065 98.1541C310.477 98.4839 315.607 93.2073 315.891 86.2819C316.319 83.9734 315.607 81.6649 314.467 79.6862Z" fill="black"/>
<path d="M121.256 87.601C121.256 91.5584 118.121 94.6914 114.416 94.6914C110.569 94.6914 107.577 91.5584 107.577 87.601C107.577 83.9734 110.284 80.8404 113.846 80.5106C113.134 80.3458 112.421 80.3458 111.709 80.3458C105.297 80.3458 100.31 85.7872 100.31 92.3829C100.31 99.3084 105.297 104.75 111.567 104.75C117.978 104.75 122.965 99.3084 122.965 92.3829C122.965 89.9095 122.253 87.7659 121.113 85.7872C121.113 86.2819 121.256 86.9414 121.256 87.601Z" fill="black"/>
<mask id="path-68-inside-1" fill="white">
<path d="M354.148 47.7202L351.298 61.2414L348.733 46.2362L313.682 37.332L313.967 59.9222L319.239 61.2414L318.811 65.3637C318.811 65.3637 318.669 65.3637 318.669 65.1988C312.115 61.2414 303.993 60.7467 296.441 64.2094C293.876 65.3637 291.454 66.8477 289.317 68.6615L284.045 30.0768H260.82L260.25 34.5289H235.742L232.892 54.3159L230.897 51.3478C224.913 42.9384 216.364 38.3214 206.817 37.9916L227.62 25.13L213.087 0.066452L186.869 35.0235L191.429 41.4543C187.297 43.433 183.735 46.0713 180.742 49.3691L158.229 26.2843L150.393 43.5979L150.678 26.7789L115.484 39.8054L116.481 61.5711L122.465 59.7573L123.32 70.8051C116.481 67.1775 108.217 67.3424 100.665 71.1349C98.3853 72.2891 96.248 73.6083 94.3957 75.2572C95.6781 68.4966 95.3931 61.9009 93.1133 55.9648C90.5486 49.0394 85.8465 43.1033 80.2896 39.4756C76.2999 36.3427 71.5979 34.5289 66.6109 33.8693C54.4996 31.3959 39.8235 33.8693 25.4324 40.9597C20.1604 43.5979 15.1734 46.566 10.7563 49.8638L5.19934 53.9861L8.61901 60.5818L19.163 81.3582L22.4402 87.6241L28.1396 84.3262L28.9945 83.8316L55.212 151.437L57.7767 157.868L63.6187 155.724L77.7248 150.448L83.9942 148.139L82.4268 140.884L74.8751 107.576C77.0124 105.762 79.0072 103.783 80.8595 101.64C80.432 105.597 80.717 109.72 81.5719 113.512C83.5667 121.592 88.1263 128.023 94.5382 131.485C101.378 135.278 109.784 135.278 117.478 131.485C121.326 129.507 124.888 126.868 127.737 123.406L128.735 136.762L153.527 132.475V106.752L205.25 136.432V107.906C207.387 107.741 209.382 107.246 211.519 106.752C217.219 105.103 222.063 102.959 226.48 99.991L224.343 115.326L252.27 120.438L253.838 108.73L261.105 124.395L265.522 114.501L267.089 130.826L298.721 137.257L297.011 124.89C301.286 125.384 305.845 124.725 310.262 122.911C311.26 122.416 312.4 121.922 313.254 121.262L311.972 134.453L333.06 137.916L333.203 147.975L355.145 155.889L383.785 56.1297L354.148 47.7202ZM230.47 62.5605L231.895 60.7467L230.185 73.2785L225.625 68.4966L230.47 62.5605ZM211.947 11.1142L219.641 23.1513L197.698 35.6831L196.131 33.0448C196.131 33.2097 211.947 11.1142 211.947 11.1142ZM66.7534 104.113L75.445 143.028L61.3389 148.304L32.2717 73.1136C30.7044 74.1029 27.7122 75.7519 25.1474 77.2359L14.6034 56.6244C18.7355 53.4914 23.4376 50.8532 28.2821 48.3798C41.9608 41.6192 55.0695 39.6405 65.471 41.7841C69.1756 42.2788 73.0228 43.5979 76.4424 46.2362C81.1445 49.3691 84.7066 53.6563 86.8439 59.2627C91.9734 72.7838 83.5667 92.2411 66.7534 104.113ZM131.87 97.1878C131.727 102.959 129.875 108.73 126.74 113.677C123.748 118.459 119.758 122.251 114.914 124.725C102.66 130.826 90.4061 124.725 87.1289 111.204C83.9942 98.1772 91.4035 82.6773 103.23 76.7412C110.782 72.9487 118.476 73.938 123.89 78.2252C127.31 80.8635 129.875 84.8209 131.015 89.7677C131.157 90.2623 131.3 90.9219 131.3 91.4166C131.87 93.3953 131.87 95.374 131.87 97.1878ZM198.696 124.725L147.258 95.0442L147.401 126.209L134.149 128.352L133.152 115.491C137.284 107.411 138.709 97.6825 136.572 88.9432C135.432 84.1613 133.294 79.8741 130.302 76.5763L128.45 50.3585L122.465 52.1723L122.18 45.5766L143.553 38.1565L144.836 63.5499L160.509 37.9916L176.04 54.9755L154.525 81.1933L174.758 90.4272C177.038 95.374 180.457 99.4963 184.732 102.629C188.864 105.597 193.709 107.411 198.696 107.906V124.725ZM172.051 81.5231L164.926 78.3901L171.623 70.97C171.196 74.4327 171.338 77.8954 172.051 81.5231ZM227.905 89.4379C222.918 94.2198 217.361 97.1878 209.952 99.3314C208.385 99.8261 206.675 100.156 205.25 100.156C193.424 101.475 183.592 95.2091 179.887 85.1507C179.46 83.9965 179.032 82.6773 178.747 81.3582C177.038 72.7838 178.463 65.1988 182.167 59.0978C183.165 57.284 184.447 55.7999 185.872 54.3159C189.291 50.6883 193.709 48.2149 198.696 46.7309C209.952 43.5979 219.784 47.5553 225.91 56.1297L204.537 82.5124C205.962 82.8422 208.242 82.3475 209.952 81.8529C215.081 80.3688 217.931 77.2359 220.353 73.938L228.903 82.8422L231.467 85.4805C230.327 86.9645 229.188 88.2836 227.905 89.4379ZM273.358 124.56L268.656 88.9432L262.102 108.565L252.27 83.9965H252.128L248.281 112.523L231.895 109.225L234.175 93.3953C234.745 92.7357 235.457 92.0762 236.027 91.2517L241.299 84.9858L236.169 79.5444L241.726 41.6192H258.255L262.387 67.837L267.089 37.4969H278.915L283.902 74.4327C277.633 82.6773 274.641 93.7251 276.635 103.948C278.203 111.863 282.477 118.129 288.462 121.922C289.032 122.251 289.744 122.581 290.314 122.911L290.884 127.693L273.358 124.56ZM314.252 112.853C312.4 114.337 310.405 115.656 308.267 116.48C303.993 118.294 299.861 118.789 296.014 117.799C293.449 117.14 291.027 115.985 288.889 114.337C285.612 111.533 283.19 107.576 282.05 102.464C280.768 96.3633 281.908 89.7677 284.757 83.9965C286.182 81.1933 288.034 78.555 290.172 76.2465C292.594 73.7732 295.444 71.6296 298.436 70.3104C305.703 67.1775 312.827 68.3317 317.814 72.454C319.666 73.938 321.234 75.9167 322.374 78.2252C323.228 80.039 323.941 82.0178 324.368 84.1613C325.936 91.5815 324.083 99.4963 320.094 105.762C318.811 108.565 316.674 110.874 314.252 112.853ZM351.298 146.491L339.187 142.368L338.19 90.5921L332.063 130.496L318.811 128.023L319.809 116.48C328.5 108.071 333.06 94.7144 330.495 82.5124C329.355 77.2359 327.076 72.454 323.656 68.9913L324.796 55.4701L319.809 53.9861L319.951 46.7309L342.749 52.0074L350.443 94.0549L358.28 56.2946L375.663 60.7467L351.298 146.491Z"/>
</mask>
<path d="M354.148 47.7202L351.298 61.2414L348.733 46.2362L313.682 37.332L313.967 59.9222L319.239 61.2414L318.811 65.3637C318.811 65.3637 318.669 65.3637 318.669 65.1988C312.115 61.2414 303.993 60.7467 296.441 64.2094C293.876 65.3637 291.454 66.8477 289.317 68.6615L284.045 30.0768H260.82L260.25 34.5289H235.742L232.892 54.3159L230.897 51.3478C224.913 42.9384 216.364 38.3214 206.817 37.9916L227.62 25.13L213.087 0.066452L186.869 35.0235L191.429 41.4543C187.297 43.433 183.735 46.0713 180.742 49.3691L158.229 26.2843L150.393 43.5979L150.678 26.7789L115.484 39.8054L116.481 61.5711L122.465 59.7573L123.32 70.8051C116.481 67.1775 108.217 67.3424 100.665 71.1349C98.3853 72.2891 96.248 73.6083 94.3957 75.2572C95.6781 68.4966 95.3931 61.9009 93.1133 55.9648C90.5486 49.0394 85.8465 43.1033 80.2896 39.4756C76.2999 36.3427 71.5979 34.5289 66.6109 33.8693C54.4996 31.3959 39.8235 33.8693 25.4324 40.9597C20.1604 43.5979 15.1734 46.566 10.7563 49.8638L5.19934 53.9861L8.61901 60.5818L19.163 81.3582L22.4402 87.6241L28.1396 84.3262L28.9945 83.8316L55.212 151.437L57.7767 157.868L63.6187 155.724L77.7248 150.448L83.9942 148.139L82.4268 140.884L74.8751 107.576C77.0124 105.762 79.0072 103.783 80.8595 101.64C80.432 105.597 80.717 109.72 81.5719 113.512C83.5667 121.592 88.1263 128.023 94.5382 131.485C101.378 135.278 109.784 135.278 117.478 131.485C121.326 129.507 124.888 126.868 127.737 123.406L128.735 136.762L153.527 132.475V106.752L205.25 136.432V107.906C207.387 107.741 209.382 107.246 211.519 106.752C217.219 105.103 222.063 102.959 226.48 99.991L224.343 115.326L252.27 120.438L253.838 108.73L261.105 124.395L265.522 114.501L267.089 130.826L298.721 137.257L297.011 124.89C301.286 125.384 305.845 124.725 310.262 122.911C311.26 122.416 312.4 121.922 313.254 121.262L311.972 134.453L333.06 137.916L333.203 147.975L355.145 155.889L383.785 56.1297L354.148 47.7202ZM230.47 62.5605L231.895 60.7467L230.185 73.2785L225.625 68.4966L230.47 62.5605ZM211.947 11.1142L219.641 23.1513L197.698 35.6831L196.131 33.0448C196.131 33.2097 211.947 11.1142 211.947 11.1142ZM66.7534 104.113L75.445 143.028L61.3389 148.304L32.2717 73.1136C30.7044 74.1029 27.7122 75.7519 25.1474 77.2359L14.6034 56.6244C18.7355 53.4914 23.4376 50.8532 28.2821 48.3798C41.9608 41.6192 55.0695 39.6405 65.471 41.7841C69.1756 42.2788 73.0228 43.5979 76.4424 46.2362C81.1445 49.3691 84.7066 53.6563 86.8439 59.2627C91.9734 72.7838 83.5667 92.2411 66.7534 104.113ZM131.87 97.1878C131.727 102.959 129.875 108.73 126.74 113.677C123.748 118.459 119.758 122.251 114.914 124.725C102.66 130.826 90.4061 124.725 87.1289 111.204C83.9942 98.1772 91.4035 82.6773 103.23 76.7412C110.782 72.9487 118.476 73.938 123.89 78.2252C127.31 80.8635 129.875 84.8209 131.015 89.7677C131.157 90.2623 131.3 90.9219 131.3 91.4166C131.87 93.3953 131.87 95.374 131.87 97.1878ZM198.696 124.725L147.258 95.0442L147.401 126.209L134.149 128.352L133.152 115.491C137.284 107.411 138.709 97.6825 136.572 88.9432C135.432 84.1613 133.294 79.8741 130.302 76.5763L128.45 50.3585L122.465 52.1723L122.18 45.5766L143.553 38.1565L144.836 63.5499L160.509 37.9916L176.04 54.9755L154.525 81.1933L174.758 90.4272C177.038 95.374 180.457 99.4963 184.732 102.629C188.864 105.597 193.709 107.411 198.696 107.906V124.725ZM172.051 81.5231L164.926 78.3901L171.623 70.97C171.196 74.4327 171.338 77.8954 172.051 81.5231ZM227.905 89.4379C222.918 94.2198 217.361 97.1878 209.952 99.3314C208.385 99.8261 206.675 100.156 205.25 100.156C193.424 101.475 183.592 95.2091 179.887 85.1507C179.46 83.9965 179.032 82.6773 178.747 81.3582C177.038 72.7838 178.463 65.1988 182.167 59.0978C183.165 57.284 184.447 55.7999 185.872 54.3159C189.291 50.6883 193.709 48.2149 198.696 46.7309C209.952 43.5979 219.784 47.5553 225.91 56.1297L204.537 82.5124C205.962 82.8422 208.242 82.3475 209.952 81.8529C215.081 80.3688 217.931 77.2359 220.353 73.938L228.903 82.8422L231.467 85.4805C230.327 86.9645 229.188 88.2836 227.905 89.4379ZM273.358 124.56L268.656 88.9432L262.102 108.565L252.27 83.9965H252.128L248.281 112.523L231.895 109.225L234.175 93.3953C234.745 92.7357 235.457 92.0762 236.027 91.2517L241.299 84.9858L236.169 79.5444L241.726 41.6192H258.255L262.387 67.837L267.089 37.4969H278.915L283.902 74.4327C277.633 82.6773 274.641 93.7251 276.635 103.948C278.203 111.863 282.477 118.129 288.462 121.922C289.032 122.251 289.744 122.581 290.314 122.911L290.884 127.693L273.358 124.56ZM314.252 112.853C312.4 114.337 310.405 115.656 308.267 116.48C303.993 118.294 299.861 118.789 296.014 117.799C293.449 117.14 291.027 115.985 288.889 114.337C285.612 111.533 283.19 107.576 282.05 102.464C280.768 96.3633 281.908 89.7677 284.757 83.9965C286.182 81.1933 288.034 78.555 290.172 76.2465C292.594 73.7732 295.444 71.6296 298.436 70.3104C305.703 67.1775 312.827 68.3317 317.814 72.454C319.666 73.938 321.234 75.9167 322.374 78.2252C323.228 80.039 323.941 82.0178 324.368 84.1613C325.936 91.5815 324.083 99.4963 320.094 105.762C318.811 108.565 316.674 110.874 314.252 112.853ZM351.298 146.491L339.187 142.368L338.19 90.5921L332.063 130.496L318.811 128.023L319.809 116.48C328.5 108.071 333.06 94.7144 330.495 82.5124C329.355 77.2359 327.076 72.454 323.656 68.9913L324.796 55.4701L319.809 53.9861L319.951 46.7309L342.749 52.0074L350.443 94.0549L358.28 56.2946L375.663 60.7467L351.298 146.491Z" fill="black" stroke="black" stroke-width="2" mask="url(#path-68-inside-1)"/>
</g>
<defs>
<clipPath id="clip0">
<rect width="384" height="163" fill="white"/>
</clipPath>
</defs>
</svg>
